<svg width="175" height="165" viewBox="0 0 175 165" fill="none" xmlns="http://www.w3.org/2000/svg">
<g id="gust">
<path id="second-bar" d="M171.159 103.757C171.159 101.788 169.562 100.191 167.593 100.191H17.829C17.536 100.191 17.274 100.291 17.001 100.358C16.728 100.291 16.467 100.191 16.173 100.191C11.188 100.191 7.132 95.392 7.132 89.494C7.132 83.596 11.189 78.797 16.173 78.797C18.142 78.797 19.739 77.2 19.739 75.231C19.739 73.262 18.142 71.665 16.173 71.665C7.255 71.665 0 79.664 0 89.494C0 99.324 7.255 107.323 16.173 107.323C16.466 107.323 16.728 107.223 17.001 107.156C17.274 107.223 17.536 107.323 17.829 107.323H167.593C169.562 107.323 171.159 105.726 171.159 103.757Z" fill="black"/>
<path id="circle" d="M89.145 57.402C104.874 57.402 117.671 44.605 117.671 28.876C117.671 13.147 104.874 0.348999 89.145 0.348999C74.626 0.348999 62.63 11.261 60.866 25.31H60.618V32.442H60.866C62.63 46.49 74.626 57.402 89.145 57.402ZM89.145 7.48C99.725 7.48 108.512 15.207 110.218 25.309H68.072C69.778 15.207 78.565 7.48 89.145 7.48ZM110.217 32.441C108.512 42.543 99.726 50.27 89.145 50.27C78.565 50.27 69.778 42.543 68.072 32.441H110.217Z" fill="black"/>
<path id="third-bar" d="M146.198 118.02C146.198 116.051 144.601 114.454 142.632 114.454H35.658C33.689 114.454 32.092 116.051 32.092 118.02C32.092 119.989 33.689 121.586 35.658 121.586H142.632C144.601 121.586 146.198 119.989 146.198 118.02Z" fill="black"/>
<path id="top-bar" d="M35.658 93.06H142.632C144.601 93.06 146.198 91.463 146.198 89.494C146.198 87.525 144.601 85.928 142.632 85.928H35.658C33.689 85.928 32.092 87.525 32.092 89.494C32.092 91.463 33.689 93.06 35.658 93.06Z" fill="black"/>
<path id="bottom" d="M158.552 128.718C158.259 128.718 157.997 128.818 157.724 128.885C157.451 128.818 157.189 128.718 156.896 128.718H55.27C53.301 128.718 51.704 130.315 51.704 132.284C51.704 134.253 53.301 135.85 55.27 135.85H156.896C157.189 135.85 157.451 135.75 157.724 135.683C157.997 135.75 158.258 135.85 158.552 135.85C163.537 135.85 167.593 140.648 167.593 146.547C167.593 152.446 163.536 157.244 158.552 157.244C156.583 157.244 154.986 158.841 154.986 160.81C154.986 162.779 156.583 164.376 158.552 164.376C167.47 164.376 174.725 156.377 174.725 146.547C174.725 136.717 167.469 128.718 158.552 128.718Z" fill="black"/>
</g>
</svg>
