 <svg width="512" height="478" viewBox="0 0 512 478" fill="none" xmlns="http://www.w3.org/2000/svg">
<g id="Group">
<path id="Vector" d="M170.667 196.333C109.227 196.333 59.734 245.826 59.734 307.266C59.734 368.706 109.227 418.2 170.667 418.2C232.107 418.2 281.6 368.707 281.6 307.267C281.6 245.827 232.107 196.333 170.667 196.333ZM264.148 298.733H203.713C202.905 295.623 201.661 292.686 200.06 289.982L242.895 247.147C254.721 261.362 262.404 279.159 264.148 298.733ZM170.667 324.333C161.28 324.333 153.6 316.653 153.6 307.266C153.6 297.879 161.28 290.199 170.667 290.199C180.054 290.199 187.734 297.879 187.734 307.266C187.734 316.653 180.053 324.333 170.667 324.333ZM188.003 277.903C185.285 276.288 182.33 275.034 179.2 274.221V213.786C198.795 215.531 216.607 223.229 230.83 235.077L188.003 277.903ZM162.133 274.221C159.023 275.029 156.085 276.274 153.381 277.875L110.546 235.04C124.761 223.213 142.558 215.529 162.133 213.786V274.221ZM153.331 336.63C156.049 338.245 159.004 339.499 162.134 340.312V400.747C142.539 399.002 124.726 391.304 110.504 379.456L153.331 336.63ZM179.2 340.312C182.311 339.504 185.25 338.259 187.956 336.657L230.79 379.491C216.574 391.32 198.777 399.004 179.2 400.748V340.312ZM98.475 247.104L141.302 289.931C139.687 292.649 138.433 295.604 137.62 298.732H77.185C78.931 279.139 86.628 261.327 98.475 247.104ZM77.185 315.8H137.62C138.428 318.91 139.672 321.847 141.273 324.551L98.438 367.386C86.612 353.171 78.929 335.375 77.185 315.8ZM242.86 367.426L200.032 324.598C201.646 321.881 202.899 318.927 203.712 315.8H264.147C262.402 335.393 254.706 353.204 242.86 367.426Z" fill="white"/>
<path id="Vector_2" d="M512 85.4C512 38.467 473.6 0.0669861 426.667 0.0669861C379.734 0.0669861 341.334 38.467 341.334 85.4C341.334 129.454 375.168 165.986 418.134 170.303V273.133C418.134 331.794 375.284 380.929 319.34 390.792C333.327 366.063 341.334 337.556 341.334 307.266C341.334 213.399 264.534 136.599 170.667 136.599C76.8 136.599 0 213.4 0 307.267C0 401.134 76.8 477.934 170.667 477.934C226.319 477.934 275.97 450.936 307.175 409.392C378.345 404.96 435.2 345.369 435.2 273.133V170.303C478.166 165.986 512 129.454 512 85.4ZM170.667 460.867C86.187 460.867 17.067 391.747 17.067 307.267C17.067 222.787 86.187 153.667 170.667 153.667C255.147 153.667 324.267 222.787 324.267 307.267C324.267 391.747 255.147 460.867 170.667 460.867ZM435.2 153.11V136.6C435.2 131.48 431.787 128.067 426.667 128.067C421.547 128.067 418.134 131.48 418.134 136.6V153.11C387.378 149.228 362.839 124.689 358.957 93.933H375.467C380.587 93.933 384 90.52 384 85.4C384 80.28 380.587 76.867 375.467 76.867H358.957C362.839 46.111 387.378 21.572 418.134 17.69V34.2C418.134 39.32 421.547 42.733 426.667 42.733C431.787 42.733 435.2 39.32 435.2 34.2V17.69C465.956 21.572 490.495 46.111 494.377 76.867H477.867C472.747 76.867 469.334 80.28 469.334 85.4C469.334 90.52 472.747 93.933 477.867 93.933H494.377C490.495 124.69 465.956 149.228 435.2 153.11Z" fill="white"/>
<path id="Vector_3" d="M466.773 45.293C463.36 41.88 458.24 41.88 454.826 45.293L437.878 62.241C434.52 60.671 430.727 59.8 426.666 59.8C412.159 59.8 401.066 70.893 401.066 85.4C401.066 99.907 412.159 111 426.666 111C441.173 111 452.266 99.907 452.266 85.4C452.266 81.339 451.395 77.545 449.825 74.188L466.773 57.24C470.187 53.827 470.187 48.707 466.773 45.293ZM426.667 93.933C421.547 93.933 418.134 90.52 418.134 85.4C418.134 80.28 421.547 76.867 426.667 76.867C431.787 76.867 435.2 80.28 435.2 85.4C435.2 90.52 431.787 93.933 426.667 93.933Z" fill="white"/>
</g>
</svg>
            