<svg width="48" height="45" viewBox="0 0 48 45" fill="none" xmlns="http://www.w3.org/2000/svg">
<g id="Group">
<path id="wind_5" d="M44.7315 29.3634L41.731 26.3433C41.5441 26.1662 41.2981 26.058 41.0325 26.058C40.7669 26.058 40.521 26.1564 40.3341 26.3433L38.3075 28.3796C37.9239 28.7633 37.9239 29.3831 38.3075 29.7667C38.6912 30.1504 39.311 30.1504 39.6946 29.7667L41.0227 28.4288L42.6361 30.052L40.6095 32.0884H12.9266C12.661 32.0884 12.415 32.1868 12.2281 32.3737L9.22764 35.3938C8.84398 35.7775 8.84398 36.3973 9.22764 36.7809L12.2281 39.8011C12.415 39.9782 12.661 40.0864 12.9266 40.0864H36.5466L37.5795 41.1291L36.2711 42.3982C35.8875 42.772 35.8776 43.3918 36.2515 43.7853C36.4482 43.982 36.704 44.0804 36.9598 44.0804C37.2057 44.0804 37.4517 43.9919 37.6582 43.8148L39.6848 41.8473C39.8717 41.6604 39.9799 41.4144 39.9799 41.1488C39.9799 40.893 39.8815 40.6373 39.6946 40.4504L37.6681 38.414C37.4812 38.2369 37.2352 38.1287 36.9696 38.1287H13.3496L11.323 36.0923L13.3496 34.0559H41.0325C41.2981 34.0559 41.5441 33.9576 41.731 33.7706L44.7315 30.7505C45.1151 30.3668 45.1151 29.7472 44.7315 29.3634Z" fill="black"/>
<path id="wind_4" d="M47.7123 35.3742L45.6857 33.3379C45.3021 32.9542 44.6823 32.9542 44.2986 33.3379C43.9149 33.7215 43.9149 34.3413 44.2986 34.725L45.6365 36.0727L44.2986 37.4205C43.9149 37.8041 43.9149 38.4239 44.2986 38.8076C44.4954 38.9945 44.7413 39.0928 44.9971 39.0928C45.2529 39.0928 45.4988 39.0043 45.6857 38.7977L47.7123 36.7613C48.0959 36.3777 48.0959 35.7579 47.7123 35.3742Z" fill="black"/>
<path id="wind_3" d="M27.9486 28.9798C30.3588 28.9798 32.6214 28.0551 34.3233 26.363C36.035 24.6709 36.9696 22.4083 36.9696 19.9883C36.9696 15.0006 32.9165 10.9278 27.9486 10.9278C27.1714 10.9278 26.3745 11.0459 25.5384 11.3017C23.5118 7.37648 19.4489 4.88757 14.963 4.88757C8.33243 4.88757 2.94144 10.3081 2.94144 16.9681C2.94144 18.7782 3.34478 20.49 4.06292 22.0246H0.983758C0.442691 22.0246 0 22.4673 0 23.0084C0 23.5495 0.442691 23.9922 0.983758 23.9922H5.20408C7.38802 27.0123 10.9492 28.9798 14.9531 28.9798H27.9486V28.9798ZM14.6678 19.2995L11.6674 16.2794C11.2837 15.8957 10.6738 15.8957 10.2901 16.2696L8.26357 18.2371C7.87006 18.6109 7.86022 19.2405 8.24389 19.6242C8.61772 20.0177 9.24732 20.0275 9.63099 19.6438L10.9591 18.3551L12.5921 19.998L10.5656 22.0344H6.26654C5.39099 20.5489 4.89911 18.8175 4.89911 16.9779C4.89911 11.4 9.41456 6.86483 14.9531 6.86483C18.957 6.86483 22.5576 9.23569 24.1119 12.9051C24.3185 13.397 24.8792 13.6331 25.3711 13.4363C26.3057 13.0723 27.1517 12.8953 27.9486 12.8953C31.8344 12.8953 35.0021 16.0826 35.0021 19.9882C35.0021 23.8642 31.8344 27.0122 27.9486 27.0122H14.9531C12.1396 27.0122 9.60148 25.8612 7.77169 23.9921H10.9689C11.2345 23.9921 11.4805 23.8838 11.6674 23.7068L14.6678 20.6866C15.0515 20.303 15.0515 19.6832 14.6678 19.2995Z" fill="black"/>
<path id="wind_2" d="M40.157 11.3804C40.3341 11.7247 40.6784 11.9214 41.0325 11.9214C41.1801 11.9214 41.3375 11.8821 41.4752 11.8132L43.0099 11.0262V12.9347C43.0099 13.4758 43.4526 13.9185 43.9937 13.9185C44.5347 13.9185 44.9774 13.4758 44.9774 12.9347V11.0262L46.5121 11.8132C46.6596 11.8821 46.8072 11.9214 46.9548 11.9214C47.3089 11.9214 47.6631 11.7247 47.8303 11.3804C48.0762 10.8983 47.8795 10.3081 47.3975 10.0621L46.1579 9.43253L47.3975 8.80292C47.8795 8.55698 48.0762 7.96673 47.8303 7.48469C47.5844 7.00265 46.9941 6.80589 46.5121 7.05183L44.9774 7.83884V5.93035C44.9774 5.38929 44.5347 4.94659 43.9937 4.94659C43.4526 4.94659 43.0099 5.38929 43.0099 5.93035V7.83884L41.4752 7.05183C40.9932 6.80589 40.4029 7.00265 40.157 7.48469C39.9111 7.96673 40.1078 8.55698 40.5899 8.80292L41.8294 9.43253L40.5899 10.0621C40.1078 10.3081 39.9111 10.8983 40.157 11.3804Z" fill="black"/>
<path id="wind" d="M29.1094 7.31404C29.2865 7.65836 29.6308 7.85511 29.9849 7.85511C30.1325 7.85511 30.2801 7.8256 30.4276 7.7469L32.0016 6.95005V8.82903C32.0016 9.3701 32.4443 9.81279 32.9854 9.81279C33.5265 9.81279 33.9692 9.3701 33.9692 8.82903V6.95989L35.5432 7.75673C35.6809 7.8256 35.8383 7.86495 35.9859 7.86495C36.3498 7.86495 36.6942 7.6682 36.8614 7.32388C37.1073 6.832 36.9106 6.24175 36.4285 5.99581L35.1693 5.3662L36.4285 4.7366C36.9106 4.49066 37.1073 3.90041 36.8614 3.41836C36.6155 2.93632 36.0252 2.73957 35.5432 2.98551L33.9692 3.78236V1.90337C33.9692 1.36231 33.5265 0.919617 32.9854 0.919617C32.4443 0.919617 32.0016 1.36231 32.0016 1.90337V3.78236L30.4276 2.98551C29.9456 2.73957 29.3553 2.93632 29.1094 3.41836C28.8635 3.90041 29.0602 4.49066 29.5422 4.7366L30.8015 5.3662L29.5422 5.99581C29.0602 6.24175 28.8635 6.832 29.1094 7.31404Z" fill="black"/>
</g>
</svg>
